# xmcd
# 
# Track frame offsets:
#     183
#     13818
#     27223
#     40488
#     55213
#     70380
#     82503
#     94345
#     108293
#     122730
#     135370
#     147930
#     160095
#     172878
#     186270
#     199695
#     212200
#     225303
#     238958
#     251303
#     265455
#     278280
# 
# Disc length: 3910
# 
# Revision: 7
# Processed by: cddbd v1.5.2PL0 Copyright (c) Steve Scherf et al.
# Submitted via: BonkEnc v1.0.8
# 
DISCID=2a0f4416
DTITLE=Various Artist - La grande époque du blues 1926-1943 CD 2
DYEAR=1994
DGENRE=Blues
TTITLE0=Washboard Sam - Diggin' My Potatoes (1935)
TTITLE1=Johnny Temple - Louise Louise Blues (1936)
TTITLE2=Roosevelt Sykes - Night Time Is The Right Time (1937)
TTITLE3=St. Louis Jimmy - Goin' Down Slow (1941)
TTITLE4=Memphis Slim - Beer Drinking Woman (1940)
TTITLE5=Georgia White - Trouble In Mind (1936)
TTITLE6=Jimmy Yancey - Slow And Easy Blues (1939)
TTITLE7=Curtis Jones - Lonesome Bedroom Blues (1936)
TTITLE8=Bea Booze - See See Rider Blues (1942)
TTITLE9=Blind Boy Fuller and Sonny Terry - Bus Rider Blues (1940)
TTITLE10=Brownie McGhee - Picking My Tomatoes (1940)
TTITLE11=Jazz Gillum - Key To The Highway (1940)
TTITLE12=Big Bill Broonzy - Just A Dream (1939)
TTITLE13=Lil Green - Why Don't You Do Right? (1941)
TTITLE14=Sonny Boy Williamson - War Time Blues (1940)
TTITLE15=Champion Jack Dupree - Gamblin' Man Blues (1940)
TTITLE16=Big Maceo - Worried Life Blues (1941)
TTITLE17=Doctor Clayton - Pearl Harbor Blues (1942)
TTITLE18=Josh White - Uncle Sam Says (1941)
TTITLE19=Louis Jordan - Ration Blues (1943)
TTITLE20=Big Joe Turner - Roll 'Em, Pete (1938)
TTITLE21=T-Bone Walker - T-Bone Blues (1940)
EXTD=
EXTT0=
EXTT1=
EXTT2=
EXTT3=
EXTT4=
EXTT5=
EXTT6=
EXTT7=
EXTT8=
EXTT9=
EXTT10=
EXTT11=
EXTT12=
EXTT13=
EXTT14=
EXTT15=
EXTT16=
EXTT17=
EXTT18=
EXTT19=
EXTT20=
EXTT21=
PLAYORDER=
